solid OpenSCAD_Model
  facet normal 0 0 1
    outer loop
      vertex 8.85 8.6 4
      vertex 6.85 7.1 4
      vertex 8.85 -8.6 4
    endloop
  endfacet
  facet normal 0 0 1
    outer loop
      vertex 8.85 8.6 4
      vertex -6.85 7.1 4
      vertex 6.85 7.1 4
    endloop
  endfacet
  facet normal 0 0 1
    outer loop
      vertex -6.85 7.1 4
      vertex -8.85 8.6 4
      vertex -6.85 -7.1 4
    endloop
  endfacet
  facet normal -0 0 1
    outer loop
      vertex -8.85 8.6 4
      vertex -6.85 7.1 4
      vertex 8.85 8.6 4
    endloop
  endfacet
  facet normal -0 0 1
    outer loop
      vertex 6.85 -7.1 4
      vertex 8.85 -8.6 4
      vertex 6.85 7.1 4
    endloop
  endfacet
  facet normal -0 0 1
    outer loop
      vertex -6.85 -7.1 4
      vertex 8.85 -8.6 4
      vertex 6.85 -7.1 4
    endloop
  endfacet
  facet normal 0 0 1
    outer loop
      vertex -6.85 -7.1 4
      vertex -8.85 -8.6 4
      vertex 8.85 -8.6 4
    endloop
  endfacet
  facet normal 0 0 1
    outer loop
      vertex -8.85 -8.6 4
      vertex -6.85 -7.1 4
      vertex -8.85 8.6 4
    endloop
  endfacet
  facet normal 0 1 0
    outer loop
      vertex 8.85 8.6 4
      vertex 2.36667 8.6 2.75
      vertex -8.85 8.6 4
    endloop
  endfacet
  facet normal 0 1 -0
    outer loop
      vertex 8.85 8.6 0
      vertex 2.36667 8.6 2.75
      vertex 8.85 8.6 4
    endloop
  endfacet
  facet normal 0 1 0
    outer loop
      vertex 2.36667 8.6 2.75
      vertex 8.85 8.6 0
      vertex 2.36667 8.6 0
    endloop
  endfacet
  facet normal 0 1 -0
    outer loop
      vertex -2.36667 8.6 2.75
      vertex -8.85 8.6 4
      vertex 2.36667 8.6 2.75
    endloop
  endfacet
  facet normal 0 1 0
    outer loop
      vertex -8.85 8.6 0
      vertex -2.36667 8.6 2.75
      vertex -2.36667 8.6 0
    endloop
  endfacet
  facet normal 0 1 0
    outer loop
      vertex -2.36667 8.6 2.75
      vertex -8.85 8.6 0
      vertex -8.85 8.6 4
    endloop
  endfacet
  facet normal 0 0 -1
    outer loop
      vertex -6.85 -7.1 0
      vertex -8.85 -7.1 0
      vertex -6.85 7.1 0
    endloop
  endfacet
  facet normal 0 0 -1
    outer loop
      vertex -6.85 7.1 0
      vertex -2.36667 8.6 0
      vertex -2.36667 7.1 0
    endloop
  endfacet
  facet normal 0 0 -1
    outer loop
      vertex -6.85 7.1 0
      vertex -8.85 8.6 0
      vertex -2.36667 8.6 0
    endloop
  endfacet
  facet normal 0 0 -1
    outer loop
      vertex -8.85 8.6 0
      vertex -6.85 7.1 0
      vertex -8.85 -7.1 0
    endloop
  endfacet
  facet normal 0 0 -1
    outer loop
      vertex 6.85 7.1 0
      vertex 8.85 -7.1 0
      vertex 6.85 -7.1 0
    endloop
  endfacet
  facet normal 0 0 -1
    outer loop
      vertex 8.85 -7.1 0
      vertex 6.85 7.1 0
      vertex 8.85 8.6 0
    endloop
  endfacet
  facet normal 0 0 -1
    outer loop
      vertex 2.36667 8.6 0
      vertex 6.85 7.1 0
      vertex 2.36667 7.1 0
    endloop
  endfacet
  facet normal 0 0 -1
    outer loop
      vertex 6.85 7.1 0
      vertex 2.36667 8.6 0
      vertex 8.85 8.6 0
    endloop
  endfacet
  facet normal 0 -1 0
    outer loop
      vertex -6.85 7.1 4
      vertex -2.36667 7.1 2.75
      vertex 6.85 7.1 4
    endloop
  endfacet
  facet normal 0 -1 0
    outer loop
      vertex -6.85 7.1 0
      vertex -2.36667 7.1 2.75
      vertex -6.85 7.1 4
    endloop
  endfacet
  facet normal 0 -1 -0
    outer loop
      vertex -2.36667 7.1 2.75
      vertex -6.85 7.1 0
      vertex -2.36667 7.1 0
    endloop
  endfacet
  facet normal 0 -1 0
    outer loop
      vertex 2.36667 7.1 2.75
      vertex 6.85 7.1 4
      vertex -2.36667 7.1 2.75
    endloop
  endfacet
  facet normal 0 -1 0
    outer loop
      vertex 6.85 7.1 0
      vertex 2.36667 7.1 2.75
      vertex 2.36667 7.1 0
    endloop
  endfacet
  facet normal 0 -1 0
    outer loop
      vertex 2.36667 7.1 2.75
      vertex 6.85 7.1 0
      vertex 6.85 7.1 4
    endloop
  endfacet
  facet normal 1 -0 0
    outer loop
      vertex -2.36667 7.1 2.75
      vertex -2.36667 8.6 0
      vertex -2.36667 8.6 2.75
    endloop
  endfacet
  facet normal 1 0 0
    outer loop
      vertex -2.36667 8.6 0
      vertex -2.36667 7.1 2.75
      vertex -2.36667 7.1 0
    endloop
  endfacet
  facet normal 0 0 -1
    outer loop
      vertex -2.36667 7.1 2.75
      vertex 2.36667 8.6 2.75
      vertex 2.36667 7.1 2.75
    endloop
  endfacet
  facet normal -0 0 -1
    outer loop
      vertex 2.36667 8.6 2.75
      vertex -2.36667 7.1 2.75
      vertex -2.36667 8.6 2.75
    endloop
  endfacet
  facet normal -1 0 0
    outer loop
      vertex 2.36667 7.1 0
      vertex 2.36667 8.6 2.75
      vertex 2.36667 8.6 0
    endloop
  endfacet
  facet normal -1 -0 0
    outer loop
      vertex 2.36667 8.6 2.75
      vertex 2.36667 7.1 0
      vertex 2.36667 7.1 2.75
    endloop
  endfacet
  facet normal -1 0 0
    outer loop
      vertex 6.85 -7.1 0
      vertex 6.85 7.1 4
      vertex 6.85 7.1 0
    endloop
  endfacet
  facet normal -1 -0 0
    outer loop
      vertex 6.85 7.1 4
      vertex 6.85 -7.1 0
      vertex 6.85 -7.1 4
    endloop
  endfacet
  facet normal 1 0 0
    outer loop
      vertex 8.85 8.6 4
      vertex 8.85 -7.1 0
      vertex 8.85 8.6 0
    endloop
  endfacet
  facet normal 1 -0 0
    outer loop
      vertex 8.85 -8.6 4
      vertex 8.85 -7.1 0
      vertex 8.85 8.6 4
    endloop
  endfacet
  facet normal 1 0 0
    outer loop
      vertex 8.85 -8.6 -2.375
      vertex 8.85 -7.1 0
      vertex 8.85 -8.6 4
    endloop
  endfacet
  facet normal 1 0 0
    outer loop
      vertex 8.85 -7.1 0
      vertex 8.85 -8.6 -2.375
      vertex 8.85 -7.1 -2.375
    endloop
  endfacet
  facet normal 0 -1 0
    outer loop
      vertex -8.85 -8.6 4
      vertex -2.36667 -8.6 2.75
      vertex 8.85 -8.6 4
    endloop
  endfacet
  facet normal 0 -1 0
    outer loop
      vertex -8.85 -8.6 4
      vertex -2.36667 -8.6 0.5
      vertex -2.36667 -8.6 2.75
    endloop
  endfacet
  facet normal 0 -1 -0
    outer loop
      vertex -2.36667 -8.6 0.5
      vertex -8.85 -8.6 -2.375
      vertex 2.36667 -8.6 0.5
    endloop
  endfacet
  facet normal 0 -1 0
    outer loop
      vertex -8.85 -8.6 -2.375
      vertex -2.36667 -8.6 0.5
      vertex -8.85 -8.6 4
    endloop
  endfacet
  facet normal 0 -1 0
    outer loop
      vertex 2.36667 -8.6 2.75
      vertex 8.85 -8.6 4
      vertex -2.36667 -8.6 2.75
    endloop
  endfacet
  facet normal 0 -1 0
    outer loop
      vertex 2.36667 -8.6 0.5
      vertex 8.85 -8.6 4
      vertex 2.36667 -8.6 2.75
    endloop
  endfacet
  facet normal 0 -1 0
    outer loop
      vertex 2.36667 -8.6 0.5
      vertex 8.85 -8.6 -2.375
      vertex 8.85 -8.6 4
    endloop
  endfacet
  facet normal 0 -1 0
    outer loop
      vertex 8.85 -8.6 -2.375
      vertex 2.36667 -8.6 0.5
      vertex -8.85 -8.6 -2.375
    endloop
  endfacet
  facet normal 0 1 -0
    outer loop
      vertex 8.85 -7.1 -2.375
      vertex 6.85 -7.1 0
      vertex 8.85 -7.1 0
    endloop
  endfacet
  facet normal 0 1 0
    outer loop
      vertex -1 -7.1 -1.125
      vertex 6.85 -7.1 0
      vertex 2 -7.1 -1.125
    endloop
  endfacet
  facet normal 0 1 0
    outer loop
      vertex 6.85 -7.1 0
      vertex -1 -7.1 -1.125
      vertex -6.85 -7.1 0
    endloop
  endfacet
  facet normal 0 1 0
    outer loop
      vertex 2 -7.1 -2.375
      vertex 6.85 -7.1 0
      vertex 8.85 -7.1 -2.375
    endloop
  endfacet
  facet normal 0 1 0
    outer loop
      vertex 6.85 -7.1 0
      vertex 2 -7.1 -2.375
      vertex 2 -7.1 -1.125
    endloop
  endfacet
  facet normal 0 1 -0
    outer loop
      vertex -1 -7.1 -2.375
      vertex -6.85 -7.1 0
      vertex -1 -7.1 -1.125
    endloop
  endfacet
  facet normal 0 1 0
    outer loop
      vertex -6.85 -7.1 0
      vertex -1 -7.1 -2.375
      vertex -8.85 -7.1 -2.375
    endloop
  endfacet
  facet normal 0 1 0
    outer loop
      vertex -6.85 -7.1 0
      vertex -8.85 -7.1 -2.375
      vertex -8.85 -7.1 0
    endloop
  endfacet
  facet normal 0 1 0
    outer loop
      vertex 6.85 -7.1 4
      vertex 2.36667 -7.1 2.75
      vertex -6.85 -7.1 4
    endloop
  endfacet
  facet normal 0 1 -0
    outer loop
      vertex 6.85 -7.1 0
      vertex 2.36667 -7.1 2.75
      vertex 6.85 -7.1 4
    endloop
  endfacet
  facet normal 0 1 0
    outer loop
      vertex 2.36667 -7.1 0.5
      vertex 6.85 -7.1 0
      vertex -2.36667 -7.1 0.5
    endloop
  endfacet
  facet normal 0 1 0
    outer loop
      vertex 2.36667 -7.1 2.75
      vertex 6.85 -7.1 0
      vertex 2.36667 -7.1 0.5
    endloop
  endfacet
  facet normal 0 1 -0
    outer loop
      vertex -2.36667 -7.1 2.75
      vertex -6.85 -7.1 4
      vertex 2.36667 -7.1 2.75
    endloop
  endfacet
  facet normal 0 1 0
    outer loop
      vertex -6.85 -7.1 0
      vertex -2.36667 -7.1 2.75
      vertex -2.36667 -7.1 0.5
    endloop
  endfacet
  facet normal 0 1 0
    outer loop
      vertex -2.36667 -7.1 2.75
      vertex -6.85 -7.1 0
      vertex -6.85 -7.1 4
    endloop
  endfacet
  facet normal 0 1 0
    outer loop
      vertex -6.85 -7.1 0
      vertex -2.36667 -7.1 0.5
      vertex 6.85 -7.1 0
    endloop
  endfacet
  facet normal -1 0 0
    outer loop
      vertex 2.36667 -8.6 0.5
      vertex 2.36667 -7.1 2.75
      vertex 2.36667 -7.1 0.5
    endloop
  endfacet
  facet normal -1 -0 0
    outer loop
      vertex 2.36667 -7.1 2.75
      vertex 2.36667 -8.6 0.5
      vertex 2.36667 -8.6 2.75
    endloop
  endfacet
  facet normal 0 0 -1
    outer loop
      vertex -2.36667 -8.6 2.75
      vertex 2.36667 -7.1 2.75
      vertex 2.36667 -8.6 2.75
    endloop
  endfacet
  facet normal -0 0 -1
    outer loop
      vertex 2.36667 -7.1 2.75
      vertex -2.36667 -8.6 2.75
      vertex -2.36667 -7.1 2.75
    endloop
  endfacet
  facet normal 1 -0 0
    outer loop
      vertex -2.36667 -8.6 2.75
      vertex -2.36667 -7.1 0.5
      vertex -2.36667 -7.1 2.75
    endloop
  endfacet
  facet normal 1 0 0
    outer loop
      vertex -2.36667 -7.1 0.5
      vertex -2.36667 -8.6 2.75
      vertex -2.36667 -8.6 0.5
    endloop
  endfacet
  facet normal 1 -0 0
    outer loop
      vertex -6.85 -7.1 4
      vertex -6.85 7.1 0
      vertex -6.85 7.1 4
    endloop
  endfacet
  facet normal 1 0 0
    outer loop
      vertex -6.85 7.1 0
      vertex -6.85 -7.1 4
      vertex -6.85 -7.1 0
    endloop
  endfacet
  facet normal -1 0 0
    outer loop
      vertex -8.85 -7.1 -2.375
      vertex -8.85 -8.6 -2.375
      vertex -8.85 -7.1 0
    endloop
  endfacet
  facet normal -1 0 0
    outer loop
      vertex -8.85 -7.1 0
      vertex -8.85 8.6 4
      vertex -8.85 8.6 0
    endloop
  endfacet
  facet normal -1 0 0
    outer loop
      vertex -8.85 -7.1 0
      vertex -8.85 -8.6 4
      vertex -8.85 8.6 4
    endloop
  endfacet
  facet normal -1 0 0
    outer loop
      vertex -8.85 -8.6 4
      vertex -8.85 -7.1 0
      vertex -8.85 -8.6 -2.375
    endloop
  endfacet
  facet normal -0 0 1
    outer loop
      vertex -2.36667 -7.1 0.5
      vertex 2.36667 -8.6 0.5
      vertex 2.36667 -7.1 0.5
    endloop
  endfacet
  facet normal 0 0 1
    outer loop
      vertex 2.36667 -8.6 0.5
      vertex -2.36667 -7.1 0.5
      vertex -2.36667 -8.6 0.5
    endloop
  endfacet
  facet normal 0 0 -1
    outer loop
      vertex 8.85 -8.6 -2.375
      vertex 2 -7.1 -2.375
      vertex 8.85 -7.1 -2.375
    endloop
  endfacet
  facet normal 0 0 -1
    outer loop
      vertex 2 -7.1 -2.375
      vertex -1 -7.1 -2.375
      vertex 2 -3.1 -2.375
    endloop
  endfacet
  facet normal 0 0 -1
    outer loop
      vertex 8.85 -8.6 -2.375
      vertex -1 -7.1 -2.375
      vertex 2 -7.1 -2.375
    endloop
  endfacet
  facet normal 0 0 -1
    outer loop
      vertex -8.85 -8.6 -2.375
      vertex -1 -7.1 -2.375
      vertex 8.85 -8.6 -2.375
    endloop
  endfacet
  facet normal -0 0 -1
    outer loop
      vertex -1 -7.1 -2.375
      vertex -8.85 -8.6 -2.375
      vertex -8.85 -7.1 -2.375
    endloop
  endfacet
  facet normal -0 0 -1
    outer loop
      vertex 2 -3.1 -2.375
      vertex -1 -7.1 -2.375
      vertex -1 -3.1 -2.375
    endloop
  endfacet
  facet normal -1 0 0
    outer loop
      vertex -1 -7.1 -2.375
      vertex -1 -3.1 -1.125
      vertex -1 -3.1 -2.375
    endloop
  endfacet
  facet normal -1 -0 0
    outer loop
      vertex -1 -3.1 -1.125
      vertex -1 -7.1 -2.375
      vertex -1 -7.1 -1.125
    endloop
  endfacet
  facet normal -0 0 1
    outer loop
      vertex -1 -3.1 -1.125
      vertex 2 -7.1 -1.125
      vertex 2 -3.1 -1.125
    endloop
  endfacet
  facet normal 0 0 1
    outer loop
      vertex 2 -7.1 -1.125
      vertex -1 -3.1 -1.125
      vertex -1 -7.1 -1.125
    endloop
  endfacet
  facet normal 1 -0 0
    outer loop
      vertex 2 -7.1 -1.125
      vertex 2 -3.1 -2.375
      vertex 2 -3.1 -1.125
    endloop
  endfacet
  facet normal 1 0 0
    outer loop
      vertex 2 -3.1 -2.375
      vertex 2 -7.1 -1.125
      vertex 2 -7.1 -2.375
    endloop
  endfacet
  facet normal 0 1 -0
    outer loop
      vertex 2 -3.1 -2.375
      vertex -1 -3.1 -1.125
      vertex 2 -3.1 -1.125
    endloop
  endfacet
  facet normal 0 1 0
    outer loop
      vertex -1 -3.1 -1.125
      vertex 2 -3.1 -2.375
      vertex -1 -3.1 -2.375
    endloop
  endfacet
endsolid OpenSCAD_Model
