solid OpenSCAD_Model
  facet normal 0 0 1
    outer loop
      vertex 8.85 8.6 4
      vertex 6.85 7.1 4
      vertex 8.85 -8.6 4
    endloop
  endfacet
  facet normal 0 0 1
    outer loop
      vertex 8.85 8.6 4
      vertex -6.85 7.1 4
      vertex 6.85 7.1 4
    endloop
  endfacet
  facet normal 0 0 1
    outer loop
      vertex -6.85 7.1 4
      vertex -8.85 8.6 4
      vertex -6.85 -7.1 4
    endloop
  endfacet
  facet normal -0 0 1
    outer loop
      vertex -8.85 8.6 4
      vertex -6.85 7.1 4
      vertex 8.85 8.6 4
    endloop
  endfacet
  facet normal -0 0 1
    outer loop
      vertex 6.85 -7.1 4
      vertex 8.85 -8.6 4
      vertex 6.85 7.1 4
    endloop
  endfacet
  facet normal -0 0 1
    outer loop
      vertex -6.85 -7.1 4
      vertex 8.85 -8.6 4
      vertex 6.85 -7.1 4
    endloop
  endfacet
  facet normal 0 0 1
    outer loop
      vertex -6.85 -7.1 4
      vertex -8.85 -8.6 4
      vertex 8.85 -8.6 4
    endloop
  endfacet
  facet normal 0 0 1
    outer loop
      vertex -8.85 -8.6 4
      vertex -6.85 -7.1 4
      vertex -8.85 8.6 4
    endloop
  endfacet
  facet normal 0 0 -1
    outer loop
      vertex -6.85 -7.1 0
      vertex -8.85 -7.1 0
      vertex -6.85 7.1 0
    endloop
  endfacet
  facet normal 0 0 -1
    outer loop
      vertex -6.85 7.1 0
      vertex -2.36667 8.6 0
      vertex -2.36667 7.1 0
    endloop
  endfacet
  facet normal 0 0 -1
    outer loop
      vertex -6.85 7.1 0
      vertex -8.85 8.6 0
      vertex -2.36667 8.6 0
    endloop
  endfacet
  facet normal 0 0 -1
    outer loop
      vertex -8.85 8.6 0
      vertex -6.85 7.1 0
      vertex -8.85 -7.1 0
    endloop
  endfacet
  facet normal 0 0 -1
    outer loop
      vertex 6.85 7.1 0
      vertex 8.85 -7.1 0
      vertex 6.85 -7.1 0
    endloop
  endfacet
  facet normal 0 0 -1
    outer loop
      vertex 8.85 -7.1 0
      vertex 6.85 7.1 0
      vertex 8.85 8.6 0
    endloop
  endfacet
  facet normal 0 0 -1
    outer loop
      vertex 2.36667 8.6 0
      vertex 6.85 7.1 0
      vertex 2.36667 7.1 0
    endloop
  endfacet
  facet normal 0 0 -1
    outer loop
      vertex 6.85 7.1 0
      vertex 2.36667 8.6 0
      vertex 8.85 8.6 0
    endloop
  endfacet
  facet normal 0 -1 0
    outer loop
      vertex -6.85 7.1 4
      vertex -2.36667 7.1 2.75
      vertex 6.85 7.1 4
    endloop
  endfacet
  facet normal 0 -1 0
    outer loop
      vertex -6.85 7.1 0
      vertex -2.36667 7.1 2.75
      vertex -6.85 7.1 4
    endloop
  endfacet
  facet normal 0 -1 -0
    outer loop
      vertex -2.36667 7.1 2.75
      vertex -6.85 7.1 0
      vertex -2.36667 7.1 0
    endloop
  endfacet
  facet normal 0 -1 0
    outer loop
      vertex 2.36667 7.1 2.75
      vertex 6.85 7.1 4
      vertex -2.36667 7.1 2.75
    endloop
  endfacet
  facet normal 0 -1 0
    outer loop
      vertex 6.85 7.1 0
      vertex 2.36667 7.1 2.75
      vertex 2.36667 7.1 0
    endloop
  endfacet
  facet normal 0 -1 0
    outer loop
      vertex 2.36667 7.1 2.75
      vertex 6.85 7.1 0
      vertex 6.85 7.1 4
    endloop
  endfacet
  facet normal 0 1 0
    outer loop
      vertex 8.85 8.6 4
      vertex 2.36667 8.6 2.75
      vertex -8.85 8.6 4
    endloop
  endfacet
  facet normal 0 1 -0
    outer loop
      vertex 8.85 8.6 0
      vertex 2.36667 8.6 2.75
      vertex 8.85 8.6 4
    endloop
  endfacet
  facet normal 0 1 0
    outer loop
      vertex 2.36667 8.6 2.75
      vertex 8.85 8.6 0
      vertex 2.36667 8.6 0
    endloop
  endfacet
  facet normal 0 1 -0
    outer loop
      vertex -2.36667 8.6 2.75
      vertex -8.85 8.6 4
      vertex 2.36667 8.6 2.75
    endloop
  endfacet
  facet normal 0 1 0
    outer loop
      vertex -8.85 8.6 0
      vertex -2.36667 8.6 2.75
      vertex -2.36667 8.6 0
    endloop
  endfacet
  facet normal 0 1 0
    outer loop
      vertex -2.36667 8.6 2.75
      vertex -8.85 8.6 0
      vertex -8.85 8.6 4
    endloop
  endfacet
  facet normal 1 -0 0
    outer loop
      vertex -2.36667 7.1 2.75
      vertex -2.36667 8.6 0
      vertex -2.36667 8.6 2.75
    endloop
  endfacet
  facet normal 1 0 0
    outer loop
      vertex -2.36667 8.6 0
      vertex -2.36667 7.1 2.75
      vertex -2.36667 7.1 0
    endloop
  endfacet
  facet normal 0 0 -1
    outer loop
      vertex -2.36667 7.1 2.75
      vertex 2.36667 8.6 2.75
      vertex 2.36667 7.1 2.75
    endloop
  endfacet
  facet normal -0 0 -1
    outer loop
      vertex 2.36667 8.6 2.75
      vertex -2.36667 7.1 2.75
      vertex -2.36667 8.6 2.75
    endloop
  endfacet
  facet normal -1 0 0
    outer loop
      vertex 2.36667 7.1 0
      vertex 2.36667 8.6 2.75
      vertex 2.36667 8.6 0
    endloop
  endfacet
  facet normal -1 -0 0
    outer loop
      vertex 2.36667 8.6 2.75
      vertex 2.36667 7.1 0
      vertex 2.36667 7.1 2.75
    endloop
  endfacet
  facet normal -1 0 0
    outer loop
      vertex 6.85 -7.1 0
      vertex 6.85 7.1 4
      vertex 6.85 7.1 0
    endloop
  endfacet
  facet normal -1 -0 0
    outer loop
      vertex 6.85 7.1 4
      vertex 6.85 -7.1 0
      vertex 6.85 -7.1 4
    endloop
  endfacet
  facet normal 1 0 0
    outer loop
      vertex 8.85 8.6 4
      vertex 8.85 -7.1 0
      vertex 8.85 8.6 0
    endloop
  endfacet
  facet normal 1 0 0
    outer loop
      vertex 8.85 -8.6 -3.875
      vertex 8.85 -7.1 0
      vertex 8.85 -8.6 4
    endloop
  endfacet
  facet normal 1 -0 0
    outer loop
      vertex 8.85 -8.6 4
      vertex 8.85 -7.1 0
      vertex 8.85 8.6 4
    endloop
  endfacet
  facet normal 1 -0 0
    outer loop
      vertex 8.85 -7.1 -2.375
      vertex 8.85 -4.85 -3.875
      vertex 8.85 -4.85 -2.375
    endloop
  endfacet
  facet normal 1 0 0
    outer loop
      vertex 8.85 -7.1 -2.375
      vertex 8.85 -8.6 -3.875
      vertex 8.85 -4.85 -3.875
    endloop
  endfacet
  facet normal 1 0 0
    outer loop
      vertex 8.85 -7.1 0
      vertex 8.85 -8.6 -3.875
      vertex 8.85 -7.1 -2.375
    endloop
  endfacet
  facet normal 0 -1 0
    outer loop
      vertex -8.85 -8.6 4
      vertex -2.36667 -8.6 2.75
      vertex 8.85 -8.6 4
    endloop
  endfacet
  facet normal 0 -1 0
    outer loop
      vertex -8.85 -8.6 4
      vertex -2.36667 -8.6 0.5
      vertex -2.36667 -8.6 2.75
    endloop
  endfacet
  facet normal 0 -1 0
    outer loop
      vertex 0.849999 -8.6 -2.375
      vertex -2.36667 -8.6 0.5
      vertex -8.85 -8.6 -2.375
    endloop
  endfacet
  facet normal 0 -1 0
    outer loop
      vertex -8.85 -8.6 -2.375
      vertex -2.36667 -8.6 0.5
      vertex -8.85 -8.6 4
    endloop
  endfacet
  facet normal 0 -1 0
    outer loop
      vertex 2.36667 -8.6 2.75
      vertex 8.85 -8.6 4
      vertex -2.36667 -8.6 2.75
    endloop
  endfacet
  facet normal 0 -1 0
    outer loop
      vertex 2.36667 -8.6 0.5
      vertex 8.85 -8.6 4
      vertex 2.36667 -8.6 2.75
    endloop
  endfacet
  facet normal 0 -1 0
    outer loop
      vertex -2.36667 -8.6 0.5
      vertex 0.849999 -8.6 -2.375
      vertex 2.36667 -8.6 0.5
    endloop
  endfacet
  facet normal 0 -1 0
    outer loop
      vertex 8.85 -8.6 -3.875
      vertex 2.36667 -8.6 0.5
      vertex 0.849999 -8.6 -2.375
    endloop
  endfacet
  facet normal 0 -1 0
    outer loop
      vertex 8.85 -8.6 -3.875
      vertex 0.849999 -8.6 -2.375
      vertex 0.849999 -8.6 -3.875
    endloop
  endfacet
  facet normal 0 -1 0
    outer loop
      vertex 2.36667 -8.6 0.5
      vertex 8.85 -8.6 -3.875
      vertex 8.85 -8.6 4
    endloop
  endfacet
  facet normal 0 1 -0
    outer loop
      vertex 8.85 -7.1 -2.375
      vertex 6.85 -7.1 0
      vertex 8.85 -7.1 0
    endloop
  endfacet
  facet normal 0 1 0
    outer loop
      vertex -1 -7.1 -1.125
      vertex 6.85 -7.1 0
      vertex 2 -7.1 -1.125
    endloop
  endfacet
  facet normal 0 1 0
    outer loop
      vertex 6.85 -7.1 0
      vertex -1 -7.1 -1.125
      vertex -6.85 -7.1 0
    endloop
  endfacet
  facet normal 0 1 0
    outer loop
      vertex 6.85 -7.1 0
      vertex 8.85 -7.1 -2.375
      vertex 3.85 -7.1 -2.375
    endloop
  endfacet
  facet normal 0 1 0
    outer loop
      vertex 6.85 -7.1 0
      vertex 3.85 -7.1 -2.375
      vertex 2 -7.1 -1.125
    endloop
  endfacet
  facet normal 0 1 0
    outer loop
      vertex 2 -7.1 -1.125
      vertex 3.85 -7.1 -2.375
      vertex 2 -7.1 -2.375
    endloop
  endfacet
  facet normal 0 1 -0
    outer loop
      vertex -1 -7.1 -2.375
      vertex -6.85 -7.1 0
      vertex -1 -7.1 -1.125
    endloop
  endfacet
  facet normal 0 1 0
    outer loop
      vertex -6.85 -7.1 0
      vertex -1 -7.1 -2.375
      vertex -8.85 -7.1 -2.375
    endloop
  endfacet
  facet normal 0 1 0
    outer loop
      vertex -6.85 -7.1 0
      vertex -8.85 -7.1 -2.375
      vertex -8.85 -7.1 0
    endloop
  endfacet
  facet normal 0 1 0
    outer loop
      vertex 6.85 -7.1 4
      vertex 2.36667 -7.1 2.75
      vertex -6.85 -7.1 4
    endloop
  endfacet
  facet normal 0 1 -0
    outer loop
      vertex 6.85 -7.1 0
      vertex 2.36667 -7.1 2.75
      vertex 6.85 -7.1 4
    endloop
  endfacet
  facet normal 0 1 0
    outer loop
      vertex 2.36667 -7.1 0.5
      vertex 6.85 -7.1 0
      vertex -2.36667 -7.1 0.5
    endloop
  endfacet
  facet normal 0 1 0
    outer loop
      vertex 2.36667 -7.1 2.75
      vertex 6.85 -7.1 0
      vertex 2.36667 -7.1 0.5
    endloop
  endfacet
  facet normal 0 1 -0
    outer loop
      vertex -2.36667 -7.1 2.75
      vertex -6.85 -7.1 4
      vertex 2.36667 -7.1 2.75
    endloop
  endfacet
  facet normal 0 1 0
    outer loop
      vertex -6.85 -7.1 0
      vertex -2.36667 -7.1 2.75
      vertex -2.36667 -7.1 0.5
    endloop
  endfacet
  facet normal 0 1 0
    outer loop
      vertex -2.36667 -7.1 2.75
      vertex -6.85 -7.1 0
      vertex -6.85 -7.1 4
    endloop
  endfacet
  facet normal 0 1 0
    outer loop
      vertex -6.85 -7.1 0
      vertex -2.36667 -7.1 0.5
      vertex 6.85 -7.1 0
    endloop
  endfacet
  facet normal -1 0 0
    outer loop
      vertex 2.36667 -8.6 0.5
      vertex 2.36667 -7.1 2.75
      vertex 2.36667 -7.1 0.5
    endloop
  endfacet
  facet normal -1 -0 0
    outer loop
      vertex 2.36667 -7.1 2.75
      vertex 2.36667 -8.6 0.5
      vertex 2.36667 -8.6 2.75
    endloop
  endfacet
  facet normal 0 0 -1
    outer loop
      vertex -2.36667 -8.6 2.75
      vertex 2.36667 -7.1 2.75
      vertex 2.36667 -8.6 2.75
    endloop
  endfacet
  facet normal -0 0 -1
    outer loop
      vertex 2.36667 -7.1 2.75
      vertex -2.36667 -8.6 2.75
      vertex -2.36667 -7.1 2.75
    endloop
  endfacet
  facet normal 1 -0 0
    outer loop
      vertex -2.36667 -8.6 2.75
      vertex -2.36667 -7.1 0.5
      vertex -2.36667 -7.1 2.75
    endloop
  endfacet
  facet normal 1 0 0
    outer loop
      vertex -2.36667 -7.1 0.5
      vertex -2.36667 -8.6 2.75
      vertex -2.36667 -8.6 0.5
    endloop
  endfacet
  facet normal 1 -0 0
    outer loop
      vertex -6.85 -7.1 4
      vertex -6.85 7.1 0
      vertex -6.85 7.1 4
    endloop
  endfacet
  facet normal 1 0 0
    outer loop
      vertex -6.85 7.1 0
      vertex -6.85 -7.1 4
      vertex -6.85 -7.1 0
    endloop
  endfacet
  facet normal -1 0 0
    outer loop
      vertex -8.85 -7.1 -2.375
      vertex -8.85 -8.6 -2.375
      vertex -8.85 -7.1 0
    endloop
  endfacet
  facet normal -1 0 0
    outer loop
      vertex -8.85 -7.1 0
      vertex -8.85 8.6 4
      vertex -8.85 8.6 0
    endloop
  endfacet
  facet normal -1 0 0
    outer loop
      vertex -8.85 -7.1 0
      vertex -8.85 -8.6 4
      vertex -8.85 8.6 4
    endloop
  endfacet
  facet normal -1 0 0
    outer loop
      vertex -8.85 -8.6 4
      vertex -8.85 -7.1 0
      vertex -8.85 -8.6 -2.375
    endloop
  endfacet
  facet normal -0 0 1
    outer loop
      vertex -2.36667 -7.1 0.5
      vertex 2.36667 -8.6 0.5
      vertex 2.36667 -7.1 0.5
    endloop
  endfacet
  facet normal 0 0 1
    outer loop
      vertex 2.36667 -8.6 0.5
      vertex -2.36667 -7.1 0.5
      vertex -2.36667 -8.6 0.5
    endloop
  endfacet
  facet normal 0 0 -1
    outer loop
      vertex 0.849999 -8.6 -2.375
      vertex -0.15 -7.1 -2.375
      vertex 0.849999 -7.1 -2.375
    endloop
  endfacet
  facet normal 0 0 -1
    outer loop
      vertex -0.15 -7.1 -2.375
      vertex -1 -7.1 -2.375
      vertex -0.15 -3.1 -2.375
    endloop
  endfacet
  facet normal 0 0 -1
    outer loop
      vertex 0.849999 -8.6 -2.375
      vertex -1 -7.1 -2.375
      vertex -0.15 -7.1 -2.375
    endloop
  endfacet
  facet normal 0 0 -1
    outer loop
      vertex -8.85 -8.6 -2.375
      vertex -1 -7.1 -2.375
      vertex 0.849999 -8.6 -2.375
    endloop
  endfacet
  facet normal -0 0 -1
    outer loop
      vertex -1 -7.1 -2.375
      vertex -8.85 -8.6 -2.375
      vertex -8.85 -7.1 -2.375
    endloop
  endfacet
  facet normal -0 0 -1
    outer loop
      vertex -0.15 -3.1 -2.375
      vertex -1 -7.1 -2.375
      vertex -1 -3.1 -2.375
    endloop
  endfacet
  facet normal 0 0 1
    outer loop
      vertex 5.585 -5.6 -2.375
      vertex 8.85 -4.85 -2.375
      vertex 5.6 -5.35 -2.375
    endloop
  endfacet
  facet normal -0 0 1
    outer loop
      vertex 5.585 -4.85 -2.375
      vertex 5.6 -5.35 -2.375
      vertex 8.85 -4.85 -2.375
    endloop
  endfacet
  facet normal 0 0 1
    outer loop
      vertex 5.6 -5.35 -2.375
      vertex 5.585 -4.85 -2.375
      vertex 5.585 -5.25529 -2.375
    endloop
  endfacet
  facet normal 0 0 1
    outer loop
      vertex 5.585 -5.6 -2.375
      vertex 5.6 -5.35 -2.375
      vertex 5.585 -5.44471 -2.375
    endloop
  endfacet
  facet normal 0 0 1
    outer loop
      vertex 8.85 -4.85 -2.375
      vertex 5.585 -5.6 -2.375
      vertex 8.85 -7.1 -2.375
    endloop
  endfacet
  facet normal 0 0 1
    outer loop
      vertex 5.51435 -5.89078 -2.375
      vertex 5.585 -5.6 -2.375
      vertex 5.5604 -5.6 -2.375
    endloop
  endfacet
  facet normal 0 0 1
    outer loop
      vertex 5.585 -5.6 -2.375
      vertex 5.51435 -5.89078 -2.375
      vertex 8.85 -7.1 -2.375
    endloop
  endfacet
  facet normal -0 0 1
    outer loop
      vertex 5.26578 -6.37862 -2.375
      vertex 8.85 -7.1 -2.375
      vertex 5.51435 -5.89078 -2.375
    endloop
  endfacet
  facet normal -0 0 1
    outer loop
      vertex 4.87862 -6.76578 -2.375
      vertex 8.85 -7.1 -2.375
      vertex 5.26578 -6.37862 -2.375
    endloop
  endfacet
  facet normal -0 0 1
    outer loop
      vertex 4.39078 -7.01435 -2.375
      vertex 8.85 -7.1 -2.375
      vertex 4.87862 -6.76578 -2.375
    endloop
  endfacet
  facet normal 0 0 1
    outer loop
      vertex 8.85 -7.1 -2.375
      vertex 4.39078 -7.01435 -2.375
      vertex 3.85 -7.1 -2.375
    endloop
  endfacet
  facet normal 0 0 -1
    outer loop
      vertex 0.849999 -7.1 -2.375
      vertex 2 -3.1 -2.375
      vertex 2 -7.1 -2.375
    endloop
  endfacet
  facet normal 0 0 -1
    outer loop
      vertex -0.15 -3.1 -2.375
      vertex 0.849999 -7.1 -2.375
      vertex -0.15 -7.1 -2.375
    endloop
  endfacet
  facet normal 0 0 -1
    outer loop
      vertex 0.849999 -7.1 -2.375
      vertex -0.15 -3.1 -2.375
      vertex 2 -3.1 -2.375
    endloop
  endfacet
  facet normal -1 0 0
    outer loop
      vertex -1 -7.1 -2.375
      vertex -1 -3.1 -1.125
      vertex -1 -3.1 -2.375
    endloop
  endfacet
  facet normal -1 -0 0
    outer loop
      vertex -1 -3.1 -1.125
      vertex -1 -7.1 -2.375
      vertex -1 -7.1 -1.125
    endloop
  endfacet
  facet normal -0 0 1
    outer loop
      vertex -1 -3.1 -1.125
      vertex 2 -7.1 -1.125
      vertex 2 -3.1 -1.125
    endloop
  endfacet
  facet normal 0 0 1
    outer loop
      vertex 2 -7.1 -1.125
      vertex -1 -3.1 -1.125
      vertex -1 -7.1 -1.125
    endloop
  endfacet
  facet normal 1 -0 0
    outer loop
      vertex 2 -7.1 -1.125
      vertex 2 -3.1 -2.375
      vertex 2 -3.1 -1.125
    endloop
  endfacet
  facet normal 1 0 0
    outer loop
      vertex 2 -3.1 -2.375
      vertex 2 -7.1 -1.125
      vertex 2 -7.1 -2.375
    endloop
  endfacet
  facet normal 0 1 0
    outer loop
      vertex -0.15 -3.1 -2.375
      vertex 2 -3.1 -1.125
      vertex 2 -3.1 -2.375
    endloop
  endfacet
  facet normal 0 1 0
    outer loop
      vertex 2 -3.1 -1.125
      vertex -0.15 -3.1 -2.375
      vertex -1 -3.1 -1.125
    endloop
  endfacet
  facet normal 0 1 0
    outer loop
      vertex -1 -3.1 -1.125
      vertex -0.15 -3.1 -2.375
      vertex -1 -3.1 -2.375
    endloop
  endfacet
  facet normal -1 0 0
    outer loop
      vertex 0.849999 -8.6 -3.875
      vertex 0.849999 -7.1 -2.375
      vertex 0.849999 -7.1 -3.875
    endloop
  endfacet
  facet normal -1 -0 0
    outer loop
      vertex 0.849999 -7.1 -2.375
      vertex 0.849999 -8.6 -3.875
      vertex 0.849999 -8.6 -2.375
    endloop
  endfacet
  facet normal 0 0 -1
    outer loop
      vertex 5.51435 -5.89078 -3.875
      vertex 8.85 -4.85 -3.875
      vertex 8.85 -8.6 -3.875
    endloop
  endfacet
  facet normal 0 0 -1
    outer loop
      vertex 8.85 -4.85 -3.875
      vertex 5.585 -5.6 -3.875
      vertex 5.6 -5.35 -3.875
    endloop
  endfacet
  facet normal 0 0 -1
    outer loop
      vertex 8.85 -4.85 -3.875
      vertex 5.51435 -5.89078 -3.875
      vertex 5.585 -5.6 -3.875
    endloop
  endfacet
  facet normal -0 0 -1
    outer loop
      vertex 5.585 -5.6 -3.875
      vertex 5.51435 -5.89078 -3.875
      vertex 5.5604 -5.6 -3.875
    endloop
  endfacet
  facet normal 0 0 -1
    outer loop
      vertex 8.85 -8.6 -3.875
      vertex 5.26578 -6.37862 -3.875
      vertex 5.51435 -5.89078 -3.875
    endloop
  endfacet
  facet normal 0 0 -1
    outer loop
      vertex 8.85 -8.6 -3.875
      vertex 4.87862 -6.76578 -3.875
      vertex 5.26578 -6.37862 -3.875
    endloop
  endfacet
  facet normal 0 0 -1
    outer loop
      vertex 8.85 -8.6 -3.875
      vertex 4.39078 -7.01435 -3.875
      vertex 4.87862 -6.76578 -3.875
    endloop
  endfacet
  facet normal 0 0 -1
    outer loop
      vertex 8.85 -8.6 -3.875
      vertex 3.85 -7.1 -3.875
      vertex 4.39078 -7.01435 -3.875
    endloop
  endfacet
  facet normal 0 0 -1
    outer loop
      vertex 0.849999 -8.6 -3.875
      vertex 3.85 -7.1 -3.875
      vertex 8.85 -8.6 -3.875
    endloop
  endfacet
  facet normal -0 0 -1
    outer loop
      vertex 3.85 -7.1 -3.875
      vertex 0.849999 -8.6 -3.875
      vertex 0.849999 -7.1 -3.875
    endloop
  endfacet
  facet normal 0 0 -1
    outer loop
      vertex 5.585 -5.25529 -3.875
      vertex 8.85 -4.85 -3.875
      vertex 5.6 -5.35 -3.875
    endloop
  endfacet
  facet normal -0 0 -1
    outer loop
      vertex 8.85 -4.85 -3.875
      vertex 5.585 -5.25529 -3.875
      vertex 5.585 -4.85 -3.875
    endloop
  endfacet
  facet normal 0 0 -1
    outer loop
      vertex 5.6 -5.35 -3.875
      vertex 5.585 -5.6 -3.875
      vertex 5.585 -5.44471 -3.875
    endloop
  endfacet
  facet normal 0 1 -0
    outer loop
      vertex 8.85 -4.85 -3.875
      vertex 5.585 -4.85 -2.375
      vertex 8.85 -4.85 -2.375
    endloop
  endfacet
  facet normal 0 1 0
    outer loop
      vertex 5.585 -4.85 -2.375
      vertex 8.85 -4.85 -3.875
      vertex 5.585 -4.85 -3.875
    endloop
  endfacet
  facet normal -0.987689 -0.156428 0
    outer loop
      vertex 5.6 -5.35 -3.875
      vertex 5.585 -5.25529 -2.375
      vertex 5.585 -5.25529 -3.875
    endloop
  endfacet
  facet normal -0.987689 -0.156428 0
    outer loop
      vertex 5.585 -5.25529 -2.375
      vertex 5.6 -5.35 -3.875
      vertex 5.6 -5.35 -2.375
    endloop
  endfacet
  facet normal -0.891004 0.453995 0
    outer loop
      vertex 5.26578 -6.37862 -3.875
      vertex 5.51435 -5.89078 -2.375
      vertex 5.51435 -5.89078 -3.875
    endloop
  endfacet
  facet normal -0.891004 0.453995 0
    outer loop
      vertex 5.51435 -5.89078 -2.375
      vertex 5.26578 -6.37862 -3.875
      vertex 5.26578 -6.37862 -2.375
    endloop
  endfacet
  facet normal -0.987689 0.156428 0
    outer loop
      vertex 5.585 -5.44471 -3.875
      vertex 5.6 -5.35 -2.375
      vertex 5.6 -5.35 -3.875
    endloop
  endfacet
  facet normal -0.987689 0.156428 0
    outer loop
      vertex 5.6 -5.35 -2.375
      vertex 5.585 -5.44471 -3.875
      vertex 5.585 -5.44471 -2.375
    endloop
  endfacet
  facet normal -0.987691 0.156418 0
    outer loop
      vertex 5.51435 -5.89078 -3.875
      vertex 5.5604 -5.6 -2.375
      vertex 5.5604 -5.6 -3.875
    endloop
  endfacet
  facet normal -0.987691 0.156418 0
    outer loop
      vertex 5.5604 -5.6 -2.375
      vertex 5.51435 -5.89078 -3.875
      vertex 5.51435 -5.89078 -2.375
    endloop
  endfacet
  facet normal -0.156432 0.987689 0
    outer loop
      vertex 4.39078 -7.01435 -3.875
      vertex 3.85 -7.1 -2.375
      vertex 4.39078 -7.01435 -2.375
    endloop
  endfacet
  facet normal -0.156432 0.987689 0
    outer loop
      vertex 3.85 -7.1 -2.375
      vertex 4.39078 -7.01435 -3.875
      vertex 3.85 -7.1 -3.875
    endloop
  endfacet
  facet normal -0.707107 0.707107 0
    outer loop
      vertex 4.87862 -6.76578 -3.875
      vertex 5.26578 -6.37862 -2.375
      vertex 5.26578 -6.37862 -3.875
    endloop
  endfacet
  facet normal -0.707107 0.707107 0
    outer loop
      vertex 5.26578 -6.37862 -2.375
      vertex 4.87862 -6.76578 -3.875
      vertex 4.87862 -6.76578 -2.375
    endloop
  endfacet
  facet normal -0.453995 0.891004 0
    outer loop
      vertex 4.87862 -6.76578 -3.875
      vertex 4.39078 -7.01435 -2.375
      vertex 4.87862 -6.76578 -2.375
    endloop
  endfacet
  facet normal -0.453995 0.891004 0
    outer loop
      vertex 4.39078 -7.01435 -2.375
      vertex 4.87862 -6.76578 -3.875
      vertex 4.39078 -7.01435 -3.875
    endloop
  endfacet
  facet normal 0 1 -0
    outer loop
      vertex 3.85 -7.1 -3.875
      vertex 2 -7.1 -2.375
      vertex 3.85 -7.1 -2.375
    endloop
  endfacet
  facet normal 0 1 0
    outer loop
      vertex 0.849999 -7.1 -3.875
      vertex 2 -7.1 -2.375
      vertex 3.85 -7.1 -3.875
    endloop
  endfacet
  facet normal 0 1 0
    outer loop
      vertex 2 -7.1 -2.375
      vertex 0.849999 -7.1 -3.875
      vertex 0.849999 -7.1 -2.375
    endloop
  endfacet
  facet normal -1 0 0
    outer loop
      vertex 5.585 -5.6 -3.875
      vertex 5.585 -5.44471 -2.375
      vertex 5.585 -5.44471 -3.875
    endloop
  endfacet
  facet normal -1 -0 0
    outer loop
      vertex 5.585 -5.44471 -2.375
      vertex 5.585 -5.6 -3.875
      vertex 5.585 -5.6 -2.375
    endloop
  endfacet
  facet normal -1 0 0
    outer loop
      vertex 5.585 -5.25529 -3.875
      vertex 5.585 -4.85 -2.375
      vertex 5.585 -4.85 -3.875
    endloop
  endfacet
  facet normal -1 -0 0
    outer loop
      vertex 5.585 -4.85 -2.375
      vertex 5.585 -5.25529 -3.875
      vertex 5.585 -5.25529 -2.375
    endloop
  endfacet
  facet normal 0 1 -0
    outer loop
      vertex 5.585 -5.6 -3.875
      vertex 5.5604 -5.6 -2.375
      vertex 5.585 -5.6 -2.375
    endloop
  endfacet
  facet normal 0 1 0
    outer loop
      vertex 5.5604 -5.6 -2.375
      vertex 5.585 -5.6 -3.875
      vertex 5.5604 -5.6 -3.875
    endloop
  endfacet
endsolid OpenSCAD_Model
